<svg width="24" height="25" viewBox="0 0 24 25" fill="none" xmlns="http://www.w3.org/2000/svg">
<path d="M21.8055 10.1873H21V10.1458H12V14.1458H17.6515C16.827 16.4743 14.6115 18.1458 12 18.1458C8.6865 18.1458 6 15.4593 6 12.1458C6 8.83225 8.6865 6.14575 12 6.14575C13.5295 6.14575 14.921 6.72275 15.9805 7.66525L18.809 4.83675C17.023 3.17225 14.634 2.14575 12 2.14575C6.4775 2.14575 2 6.62325 2 12.1458C2 17.6683 6.4775 22.1458 12 22.1458C17.5225 22.1458 22 17.6683 22 12.1458C22 11.4753 21.931 10.8208 21.8055 10.1873Z" fill="#FFC107"/>
<path d="M3.15283 7.49125L6.43833 9.90075C7.32733 7.69975 9.48033 6.14575 11.9998 6.14575C13.5293 6.14575 14.9208 6.72275 15.9803 7.66525L18.8088 4.83675C17.0228 3.17225 14.6338 2.14575 11.9998 2.14575C8.15883 2.14575 4.82783 4.31425 3.15283 7.49125Z" fill="#FF3D00"/>
<path d="M12.0002 22.1457C14.5832 22.1457 16.9302 21.1572 18.7047 19.5497L15.6097 16.9307C14.5721 17.7203 13.3039 18.1471 12.0002 18.1457C9.39916 18.1457 7.19066 16.4872 6.35866 14.1727L3.09766 16.6852C4.75266 19.9237 8.11366 22.1457 12.0002 22.1457Z" fill="#4CAF50"/>
<path d="M21.8055 10.1873H21V10.1458H12V14.1458H17.6515C17.2571 15.254 16.5467 16.2223 15.608 16.9313L15.6095 16.9303L18.7045 19.5493C18.4855 19.7483 22 17.1458 22 12.1458C22 11.4753 21.931 10.8208 21.8055 10.1873Z" fill="#1976D2"/>
</svg>
